<svg width="51" height="47" viewBox="0 0 51 47" fill="none" xmlns="http://www.w3.org/2000/svg">
<path d="M37.0327 1.83667C37.8226 0.46844 39.5842 -0.012862 40.8536 0.927706C44.4906 3.62251 47.3455 7.26381 49.0914 11.4786C51.2036 16.5781 51.5742 22.232 50.1456 27.5636C48.717 32.8952 45.5691 37.6063 41.1901 40.9665C36.8111 44.3266 31.4457 46.1479 25.926 46.1479C20.4064 46.1479 15.041 44.3266 10.662 40.9665C6.28293 37.6064 3.13502 32.8952 1.70643 27.5636C0.277838 22.232 0.648418 16.5781 2.76069 11.4786C4.5065 7.26382 7.36145 3.62252 10.9984 0.92771C12.2678 -0.0128582 14.0294 0.468443 14.8194 1.83667V1.83667C15.6093 3.20489 15.1237 4.93912 13.8867 5.92197C11.3261 7.95659 9.30995 10.6177 8.04648 13.668C6.41617 17.6039 6.13015 21.9678 7.23277 26.0828C8.33539 30.1978 10.765 33.8341 14.1449 36.4275C17.5247 39.0209 21.6658 40.4267 25.926 40.4267C30.1862 40.4267 34.3274 39.0209 37.7072 36.4275C41.087 33.834 43.5167 30.1978 44.6193 26.0828C45.7219 21.9678 45.4359 17.6039 43.8056 13.668C42.5421 10.6177 40.526 7.95659 37.9653 5.92197C36.7283 4.93912 36.2427 3.20489 37.0327 1.83667V1.83667Z" fill="white"/>
</svg>
