<svg width="540" height="12" viewBox="0 0 540 12" fill="none" xmlns="http://www.w3.org/2000/svg">
<path d="M6 6C15.5001 6 24.0001 6 31.5001 6" stroke="#DCDCDC" stroke-width="12" stroke-linecap="round"/>
<path d="M230 6C239.5 6 248 6 255.5 6" stroke="#DCDCDC" stroke-opacity="0.45" stroke-width="8" stroke-linecap="round"/>
<path d="M118 6C127.5 6 136 6 143.5 6" stroke="#DCDCDC" stroke-opacity="0.45" stroke-width="8" stroke-linecap="round"/>
<path d="M342 6C351.5 6 360 6 367.5 6" stroke="#DCDCDC" stroke-opacity="0.45" stroke-width="8" stroke-linecap="round"/>
<path d="M454 6C463.5 6 472 6 479.5 6" stroke="#DCDCDC" stroke-opacity="0.45" stroke-width="8" stroke-linecap="round"/>
<path d="M62 6C71.5001 6 80.0001 6 87.5001 6" stroke="#DCDCDC" stroke-opacity="0.45" stroke-width="8" stroke-linecap="round"/>
<path d="M286 6C295.5 6 304 6 311.5 6" stroke="#DCDCDC" stroke-opacity="0.45" stroke-width="8" stroke-linecap="round"/>
<path d="M174 6C183.5 6 192 6 199.5 6" stroke="#DCDCDC" stroke-opacity="0.45" stroke-width="8" stroke-linecap="round"/>
<path d="M398 6C407.5 6 416 6 423.5 6" stroke="#DCDCDC" stroke-opacity="0.45" stroke-width="8" stroke-linecap="round"/>
<path d="M510 6C519.5 6 528 6 535.5 6" stroke="#DCDCDC" stroke-opacity="0.45" stroke-width="8" stroke-linecap="round"/>
</svg>
