<svg width="50" height="79" viewBox="0 0 50 79" fill="none" xmlns="http://www.w3.org/2000/svg">
<path d="M20.3934 12.6859C19.4291 16.4384 22.2084 17.4522 23.3041 17.7246C24.3998 17.9969 25.8614 18.0906 27.3242 17.735C28.787 17.3794 30.5917 15.1301 29.8955 12.7105C29.1992 10.2909 26.9977 2.64074 25.1704 2.63602C23.3431 2.6313 20.7625 11.2494 20.3934 12.6859Z" stroke="white"/>
<path d="M21.797 29.1896L21.6813 73.994C21.6784 75.0986 22.5715 75.9963 23.6761 75.9992L26.2463 76.0058C27.3508 76.0087 28.2486 75.1156 28.2514 74.011L28.3672 29.2066M21.797 29.1896L28.3672 29.2066M21.797 29.1896L20.2224 22.6146C19.9208 21.3551 20.8775 20.1454 22.1726 20.1488L28.0383 20.1639C29.3334 20.1673 30.2838 21.3819 29.9757 22.6398L28.3672 29.2066" stroke="white"/>
</svg>
