<svg width="87" height="99" viewBox="0 0 87 99" fill="none" xmlns="http://www.w3.org/2000/svg">
<path fill-rule="evenodd" clip-rule="evenodd" d="M58.4031 0L65.482 2.17811L67.4934 11.2297L73.1046 14.0353L81.7006 11.507L86.6168 16.4232L84.0902 25.5189L84.7053 26.7492L71.8265 34.9916L71.2874 34.1493L83.4086 26.3918L83.0237 25.622L85.4971 16.7177L81.4133 12.6339L73.0093 15.1057L66.6205 11.9113L64.632 2.96284L58.7108 1.14095L52.7759 7.57048H45.3499L39.3994 1.61999L33.4724 2.98774L31.4945 11.3941L25.1227 15.111L16.7006 12.6339L12.6168 16.7177L15.0952 25.6401L11.3788 32.0112L2.46709 33.9915L1.11394 39.4041L7.55697 45.3516V52.7894L1.10945 58.7409L2.47326 64.6508L11.3788 66.6298L15.0952 73.0009L12.6168 81.9232L16.6877 85.9941L25.1089 83.0219L31.4977 86.7487L33.478 95.6604L38.9036 97.0167L45.3499 90.5705H52.7759L58.7233 97.0135L64.1359 95.6604L66.1163 86.7487L72.4874 83.0322L81.4284 85.5158L85.4918 81.9039L83.0139 72.9837L83.8533 71.7245L71.2949 63.9963L71.819 63.1446L85.2606 71.4164L84.1 73.1573L86.6222 82.237L81.6856 86.6251L72.6266 84.1087L66.9977 87.3923L64.978 96.4806L58.3906 98.1274L52.3381 91.5705H45.7641L39.2103 98.1242L32.6359 96.4806L30.6163 87.3923L25.005 84.119L16.4262 87.1468L11.4971 82.2177L14.0187 73.1401L10.7352 67.5112L1.64068 65.4902L0.00448954 58.4L6.55697 52.3516V45.7894L0 39.7368L1.64685 33.1494L10.7352 31.1298L14.0187 25.5009L11.4971 16.4232L16.4133 11.507L24.9912 14.03L30.6195 10.7468L32.6415 2.15321L39.7146 0.520966L45.7641 6.57048H52.3381L58.4031 0Z" fill="white"/>
<path fill-rule="evenodd" clip-rule="evenodd" d="M72.8023 63.7642C72.6239 64.0464 72.4406 64.325 72.2526 64.5998C69.0848 69.2295 64.5712 72.7869 59.3114 74.7824C53.7393 76.8963 47.6314 77.1429 41.9071 75.485C36.1827 73.8272 31.1519 70.3547 27.5719 65.5903C23.9918 60.8259 22.0564 55.0274 22.057 49.0679C22.0575 43.1084 23.994 37.3103 27.575 32.5465C31.1559 27.7828 36.1874 24.3112 41.912 22.6545C47.6367 20.9977 53.7446 21.2455 59.3162 23.3604C64.5757 25.3569 69.0886 28.9151 72.2555 33.5454C72.4435 33.8202 72.6266 34.0988 72.805 34.381L71.8075 35.0114C68.7608 30.1895 64.23 26.4877 58.8975 24.4635C53.5649 22.4393 47.719 22.2022 42.24 23.7879C36.761 25.3735 31.9454 28.6962 28.5181 33.2555C25.0908 37.8148 23.2374 43.3642 23.2369 49.068C23.2364 54.7719 25.0887 60.3215 28.5152 64.8815C31.9416 69.4415 36.7566 72.765 42.2353 74.3517C47.714 75.9384 53.5599 75.7024 58.8929 73.6792C64.2258 71.656 68.7572 67.9551 71.8049 63.1338L72.8023 63.7642Z" fill="white"/>
</svg>
